<?xml version="1.0" standalone="no"?>
<!DOCTYPE svg PUBLIC "-//W3C//DTD SVG 20010904//EN"
 "http://www.w3.org/TR/2001/REC-SVG-20010904/DTD/svg10.dtd">
<svg version="1.0" xmlns="http://www.w3.org/2000/svg"
 width="225.000000pt" height="225.000000pt" viewBox="0 0 225.000000 225.000000"
 preserveAspectRatio="xMidYMid meet">
<metadata>
Created by potrace 1.11, written by Peter Selinger 2001-2013
</metadata>
<g transform="translate(0.000000,225.000000) scale(0.100000,-0.100000)"
fill="#000000" stroke="none">
<path d="M0 1125 l0 -1125 1125 0 1125 0 0 1125 0 1125 -1125 0 -1125 0 0
-1125z m1853 754 c28 -13 57 -58 57 -89 0 -105 -150 -139 -195 -43 -41 86 49
173 138 132z m-577 -35 c30 -18 60 -48 79 -79 29 -46 30 -54 29 -154 0 -89 -4
-118 -27 -182 -66 -184 -36 -356 80 -473 79 -79 152 -109 310 -125 50 -5 106
-17 124 -26 74 -39 119 -117 119 -210 0 -77 -25 -130 -80 -178 -116 -99 -258
-71 -410 82 -115 117 -200 297 -220 469 -11 95 0 224 25 307 8 27 13 50 11 52
-2 2 -19 -23 -39 -55 -111 -180 -265 -297 -468 -355 l-81 -24 99 -6 c194 -12
349 -74 491 -197 85 -73 106 -106 40 -61 -111 75 -232 97 -346 62 -102 -31
-179 -93 -259 -211 -60 -88 -115 -120 -206 -120 -181 0 -294 199 -202 356 45
77 144 133 282 161 260 51 424 252 384 471 -7 37 -30 106 -52 153 -58 128 -54
215 17 298 71 84 204 105 300 45z"/>
<path d="M1749 1851 c-38 -39 -40 -88 -3 -125 56 -55 144 -18 144 61 -1 42
-13 63 -47 81 -35 19 -63 14 -94 -17z m85 -7 c19 -7 21 -50 4 -57 -10 -3 -10
-9 0 -27 19 -31 7 -37 -13 -6 -22 34 -43 33 -48 -1 -2 -16 -5 0 -6 35 -1 59 0
62 23 62 13 0 31 -3 40 -6z"/>
<path d="M1783 1824 c-8 -22 11 -37 36 -29 25 8 28 30 5 39 -25 9 -34 7 -41
-10z"/>
</g>
</svg>
